<svg xmlns="http://www.w3.org/2000/svg" width="120" height="23.358" viewBox="0 0 120 23.358"><defs><style>.a{fill:none;}.b{fill:red;}</style></defs><g transform="translate(-46.582 -123.99)"><path d="M2318.64,171.094h-1.881c-.072-.014-.143-.033-.216-.042s-.127,0-.188-.007c-.237-.044-.474-.088-.709-.143-.3-.07-.6-.138-.9-.23s-.6-.207-.889-.329a6.424,6.424,0,0,1-1.122-.594c-.321-.216-.646-.426-.946-.669s-.555-.505-.825-.766a4.153,4.153,0,0,1-.282-.324,3.833,3.833,0,0,1-.246-.305c-.181-.267-.369-.53-.527-.811-.191-.341-.358-.7-.528-1.05-.079-.164-.14-.337-.209-.506l-.034,0v5.412c-.287.042-4.625.028-4.77-.017V156.778a.954.954,0,0,0-.191.228l-1.481,2.244-1.088,1.651-1.282,1.948q-.4.608-.8,1.215l-.719,1.089c-.137.207-.27.417-.41.623-.1.147-.18.143-.277,0q-.528-.8-1.057-1.607l-1.828-2.767q-.612-.927-1.221-1.854c-.3-.447-.594-.891-.889-1.338-.283-.43-.563-.862-.846-1.293a.423.423,0,0,0-.064-.056V170.5c0,.252,0,.253-.249.253h-4.46V149.085h4.933c.038,0,.075,0,.113,0a.155.155,0,0,1,.154.084c.211.345.426.688.638,1.032.353.571.7,1.143,1.057,1.714q.729,1.174,1.461,2.346c.352.565.7,1.133,1.052,1.7q.552.888,1.108,1.774c.094.151.19.3.3.473.133-.218.251-.414.372-.607.35-.559.7-1.116,1.051-1.676.4-.65.8-1.3,1.206-1.954s.808-1.3,1.213-1.949l.671-1.077c.353-.565.711-1.126,1.054-1.7a.281.281,0,0,1,.278-.163q2.389.007,4.777,0h.192v9.32c0,.226,0,.451,0,.677a5.346,5.346,0,0,0,.02.641c.084-.176.15-.353.222-.529a6.979,6.979,0,0,1,.749-1.4,8.107,8.107,0,0,1,.672-.893,9.579,9.579,0,0,1,1.284-1.205,8.8,8.8,0,0,1,1.078-.7,11.062,11.062,0,0,1,1.188-.543,9.342,9.342,0,0,1,1.116-.348c.3-.076.621-.1.931-.159a5.884,5.884,0,0,1,1.061-.091c.276,0,.552,0,.828,0a1.114,1.114,0,0,1,.15,0c.338.046.677.084,1.013.145s.678.132,1.01.226a8.7,8.7,0,0,1,1.857.766,9.571,9.571,0,0,1,1.749,1.267,7.852,7.852,0,0,1,.778.861,7.623,7.623,0,0,1,.866,1.3,7.213,7.213,0,0,1,.651,1.642c.006.025.045.041.069.062.063-.248.12-.481.183-.713a7.33,7.33,0,0,1,.431-1.164,6.9,6.9,0,0,1,.835-1.433c.182-.228.357-.464.553-.68a6.83,6.83,0,0,1,1.1-.959,7.053,7.053,0,0,1,1.683-.886,5.908,5.908,0,0,1,1.4-.351c.278-.03.555-.081.833-.085a6.4,6.4,0,0,1,1.143.035c.207.034.415.057.622.1a6.493,6.493,0,0,1,1.135.345,6.066,6.066,0,0,1,1.787,1.138c.26.232.484.5.725.756.005.006.023,0,.056,0v-8.013c.247-.042,4.6-.031,4.745.012v15.163c.042-.062.06-.085.074-.11a4.321,4.321,0,0,1,.62-.839,4.9,4.9,0,0,1,.681-.586,5.173,5.173,0,0,1,1.284-.681c.285-.1.574-.2.866-.276.25-.068.505-.117.761-.161.189-.032.384-.031.573-.064.4-.07.807-.049,1.211-.08.271-.021.547.032.821.037a5.606,5.606,0,0,1,1,.1c.29.059.585.093.875.153.241.05.479.117.717.182.219.06.437.126.666.193a3.482,3.482,0,0,0-.171-1.388,2.4,2.4,0,0,0-.577-.951,2.31,2.31,0,0,0-.86-.553c-.234-.081-.475-.138-.71-.214a3.616,3.616,0,0,0-.936-.123c-.472-.023-.946.024-1.419.041h-.019c-.293.048-.587.089-.878.146-.345.068-.692.132-1.029.228-.458.129-.909.286-1.363.431-.123.039-.156.025-.194-.092-.058-.184-.11-.369-.171-.552-.235-.709-.473-1.417-.708-2.127-.087-.264-.17-.529-.257-.8.346-.141.673-.292,1.013-.409.473-.165.952-.315,1.434-.452.3-.086.614-.14.922-.2.261-.052.522-.108.785-.141.3-.038.6-.061.906-.091.358-.036.72-.01,1.082-.052a4.914,4.914,0,0,1,1.062.042c.266.027.533.035.8.052a.521.521,0,0,1,.055.011l.473.086a5.655,5.655,0,0,1,.6.118c.373.113.744.234,1.107.374a5.283,5.283,0,0,1,1.874,1.239,5.349,5.349,0,0,1,.983,1.406,6.577,6.577,0,0,1,.473,1.308c.063.251.1.507.149.763.025.14.037.283.053.425a7.524,7.524,0,0,1,.089.829q.009,4.984,0,9.969c0,.054-.008.109-.011.163h-4.562c-.015-.2-.006-.383-.008-.568s0-.389,0-.583v-.566c-.042.015-.063.016-.074.027-.2.191-.38.4-.591.571a5.9,5.9,0,0,1-1.208.773,5.653,5.653,0,0,1-1.314.459c-.188.038-.376.073-.566.1a6.017,6.017,0,0,1-.794.091,6.368,6.368,0,0,1-1.292-.042c-.255-.051-.521-.049-.771-.111a6.436,6.436,0,0,1-1.552-.574,4.013,4.013,0,0,1-.808-.54,7.726,7.726,0,0,1-.662-.659,7.925,7.925,0,0,1-.467-.672c-.005-.007-.022-.006-.033-.008s-.016.019-.016.028q0,1.044.006,2.087c0,.193-.006.2-.2.2h-4.382c-.048,0-.1-.009-.161-.015V169.6c0-.194,0-.389,0-.583s0-.367,0-.55c-.142.127-.237.274-.358.395a9.4,9.4,0,0,1-1.141,1.057,5.754,5.754,0,0,1-1.479.782,6.847,6.847,0,0,1-1.836.345,5.967,5.967,0,0,1-1.14-.046c-.168-.038-.348-.024-.517-.061a8.513,8.513,0,0,1-1.25-.355,6.653,6.653,0,0,1-1.33-.669c-.253-.17-.5-.344-.744-.532a5.134,5.134,0,0,1-.541-.489c-.181-.189-.346-.393-.507-.6s-.323-.425-.47-.647a6.231,6.231,0,0,1-.652-1.258c-.138-.37-.257-.748-.378-1.124-.052-.161-.087-.328-.136-.517a.436.436,0,0,0-.069.094c-.074.229-.133.464-.219.688a8.575,8.575,0,0,1-.741,1.485,8.705,8.705,0,0,1-.889,1.18,8.4,8.4,0,0,1-1.571,1.359,8.146,8.146,0,0,1-1.84.946,11.668,11.668,0,0,1-1.278.387,4.86,4.86,0,0,1-1.063.164A.391.391,0,0,0,2318.64,171.094Zm3.35-8.556a4.18,4.18,0,0,0-.143-1.3,4.426,4.426,0,0,0-.614-1.389,4.033,4.033,0,0,0-.826-.934,5.18,5.18,0,0,0-.742-.5,4.5,4.5,0,0,0-1.784-.477,4.573,4.573,0,0,0-1.04.081,3.779,3.779,0,0,0-1.028.312,3.922,3.922,0,0,0-1.488,1.218,4.357,4.357,0,0,0-.616,1.147,3.424,3.424,0,0,0-.195.752,6.389,6.389,0,0,0-.091.678,3.789,3.789,0,0,0,.043,1.026c.036.137.031.284.064.422a4.967,4.967,0,0,0,.486,1.266,4.287,4.287,0,0,0,1.148,1.343,4.211,4.211,0,0,0,1.15.612,4.308,4.308,0,0,0,1.145.233,4.566,4.566,0,0,0,1.444-.141,3.838,3.838,0,0,0,1.735-.946,5.345,5.345,0,0,0,.425-.473,3.737,3.737,0,0,0,.479-.775,4.236,4.236,0,0,0,.326-.923,6.106,6.106,0,0,0,.117-.7A5.023,5.023,0,0,0,2321.99,162.538Zm16.987-.086a6.827,6.827,0,0,0-.1-1.041,4.908,4.908,0,0,0-.328-1.116,4.169,4.169,0,0,0-1.315-1.671,3.815,3.815,0,0,0-1.978-.746,3.467,3.467,0,0,0-1.187.1,3.915,3.915,0,0,0-1.707.915c-.124.112-.22.254-.337.374a3.015,3.015,0,0,0-.478.688,4.7,4.7,0,0,0-.519,1.6,8.017,8.017,0,0,0-.074.947,4.849,4.849,0,0,0,.032.521,3.812,3.812,0,0,0,.063.5,6.253,6.253,0,0,0,.329,1.06,3.9,3.9,0,0,0,.583.973,3.994,3.994,0,0,0,1.48,1.149,4.092,4.092,0,0,0,1.256.317,3.582,3.582,0,0,0,1.346-.145,3.466,3.466,0,0,0,1.312-.688,4.537,4.537,0,0,0,.806-.882,4.9,4.9,0,0,0,.751-1.961A8.931,8.931,0,0,0,2338.977,162.452Zm11.964,1.027a4.809,4.809,0,0,0-1.188.092,3.449,3.449,0,0,0-1.188.461,1.858,1.858,0,0,0-.671.763,2.354,2.354,0,0,0-.142,1.44,1.675,1.675,0,0,0,.748,1.073,2.735,2.735,0,0,0,1.381.452,4.728,4.728,0,0,0,1.948-.243,3.056,3.056,0,0,0,1.653-1.223,2.269,2.269,0,0,0,.387-1.264q0-.385,0-.771c0-.2-.017-.217-.2-.285a7.3,7.3,0,0,0-1.522-.407,5.51,5.51,0,0,0-.925-.09C2351.129,163.481,2351.035,163.479,2350.941,163.479Z" transform="translate(-2198.779 -23.745)"/><path class="a" d="M119.862,147.349a.4.4,0,0,1,.119-.041,4.876,4.876,0,0,0,1.064-.164,11.669,11.669,0,0,0,1.278-.387,8.153,8.153,0,0,0,1.84-.946,8.4,8.4,0,0,0,1.57-1.359,8.679,8.679,0,0,0,.889-1.18,8.584,8.584,0,0,0,.741-1.485c.087-.224.145-.459.219-.688a.44.44,0,0,1,.069-.094c.049.189.085.356.137.517.121.376.24.754.378,1.124a6.232,6.232,0,0,0,.652,1.258c.147.222.306.437.47.647s.327.411.507.6a5.168,5.168,0,0,0,.541.489c.24.188.491.362.744.532a6.661,6.661,0,0,0,1.33.669,8.5,8.5,0,0,0,1.25.355c.169.037.348.023.516.061a5.95,5.95,0,0,0,1.141.046,6.847,6.847,0,0,0,1.836-.345,5.759,5.759,0,0,0,1.479-.782,9.375,9.375,0,0,0,1.14-1.057c.121-.121.216-.267.358-.395,0,.183,0,.367,0,.55s0,.389,0,.583v1.135c.065.006.113.015.161.015h4.382c.2,0,.2-.007.2-.2q0-1.044-.006-2.087c0-.009.011-.019.016-.028s.028,0,.033.008a7.966,7.966,0,0,0,.467.672,7.762,7.762,0,0,0,.662.659,4,4,0,0,0,.808.54,6.425,6.425,0,0,0,1.552.574c.251.062.517.061.771.111a6.383,6.383,0,0,0,1.292.042,5.993,5.993,0,0,0,.794-.091c.19-.027.378-.062.566-.1a5.661,5.661,0,0,0,1.314-.459,5.9,5.9,0,0,0,1.208-.773c.211-.173.394-.38.591-.571.011-.011.032-.012.074-.027v.566c0,.194,0,.389,0,.583s-.008.372.007.568h4.562c0-.054.011-.109.011-.163q0-4.984,0-9.969a7.473,7.473,0,0,0-.09-.829c-.016-.142-.029-.284-.053-.425-.045-.255-.086-.512-.15-.763a6.587,6.587,0,0,0-.473-1.308,5.369,5.369,0,0,0-.983-1.406,5.286,5.286,0,0,0-1.874-1.239c-.363-.141-.734-.261-1.107-.374a5.654,5.654,0,0,0-.6-.118l-.473-.086a.468.468,0,0,0-.055-.011c-.267-.017-.534-.025-.8-.052a4.916,4.916,0,0,0-1.062-.042c-.362.042-.724.016-1.082.052-.3.03-.6.053-.905.091-.264.033-.524.088-.785.141-.308.062-.62.116-.922.2q-.723.206-1.434.452c-.339.118-.667.268-1.013.409.088.275.17.54.257.8.235.709.474,1.417.709,2.127.061.183.112.368.17.552.037.118.071.132.194.092.454-.145.9-.3,1.363-.431.338-.1.684-.16,1.029-.228.291-.057.585-.1.878-.146h.019c.473-.017.948-.064,1.419-.041a3.615,3.615,0,0,1,.935.123c.235.075.477.133.71.214a2.308,2.308,0,0,1,.86.553,2.411,2.411,0,0,1,.577.951,3.487,3.487,0,0,1,.17,1.388c-.228-.067-.446-.133-.665-.193-.238-.065-.476-.132-.717-.182-.29-.06-.585-.095-.875-.153a5.6,5.6,0,0,0-1-.1c-.274-.005-.549-.058-.82-.037-.4.031-.81.01-1.211.08-.189.033-.384.031-.573.064-.255.043-.511.093-.76.161-.292.079-.582.173-.867.276a5.175,5.175,0,0,0-1.284.681,4.867,4.867,0,0,0-.681.586,4.3,4.3,0,0,0-.621.839c-.014.025-.032.047-.074.11V124.484c-.148-.044-4.5-.054-4.745-.012v8.013c-.033,0-.05.008-.056,0-.241-.253-.465-.524-.725-.756a6.059,6.059,0,0,0-1.787-1.138,6.5,6.5,0,0,0-1.135-.345c-.207-.042-.416-.064-.622-.1a6.4,6.4,0,0,0-1.143-.035c-.278,0-.555.055-.833.085a5.919,5.919,0,0,0-1.4.351,7.052,7.052,0,0,0-1.683.886,6.841,6.841,0,0,0-1.1.959c-.2.216-.371.452-.553.68a6.912,6.912,0,0,0-.835,1.433,7.337,7.337,0,0,0-.431,1.164c-.063.232-.12.465-.183.713-.023-.021-.062-.037-.068-.062a7.194,7.194,0,0,0-.652-1.642,7.62,7.62,0,0,0-.866-1.3,7.9,7.9,0,0,0-.778-.861,9.588,9.588,0,0,0-1.748-1.267,8.7,8.7,0,0,0-1.857-.766c-.331-.094-.671-.164-1.01-.226s-.675-.1-1.013-.145a1.107,1.107,0,0,0-.15,0c-.276,0-.552,0-.828,0a5.889,5.889,0,0,0-1.061.091c-.31.054-.627.083-.931.159a9.293,9.293,0,0,0-1.117.348,11.051,11.051,0,0,0-1.188.543,8.819,8.819,0,0,0-1.078.7,9.6,9.6,0,0,0-1.284,1.205,8.081,8.081,0,0,0-.672.893,7.009,7.009,0,0,0-.749,1.4c-.071.175-.137.352-.222.529a5.358,5.358,0,0,1-.02-.641c0-.226,0-.451,0-.677v-9.32h-.192q-2.389,0-4.777,0a.281.281,0,0,0-.278.163c-.343.57-.7,1.131-1.054,1.7l-.671,1.077q-.607.974-1.213,1.949c-.4.651-.8,1.3-1.205,1.954-.348.56-.7,1.117-1.051,1.676-.121.194-.239.389-.372.607-.11-.173-.206-.322-.3-.473q-.555-.886-1.108-1.774c-.352-.565-.7-1.132-1.052-1.7q-.729-1.173-1.46-2.346c-.354-.57-.7-1.143-1.058-1.714-.213-.344-.428-.687-.638-1.032a.154.154,0,0,0-.154-.084c-.037,0-.075,0-.113,0H88.731v21.669h4.46c.249,0,.249,0,.249-.253V133.112a.4.4,0,0,1,.064.056c.282.431.562.863.846,1.293.295.447.594.891.889,1.338q.612.926,1.221,1.854l1.828,2.767q.53.8,1.057,1.607c.1.147.176.152.277,0,.14-.205.273-.415.41-.623l.719-1.089.8-1.215,1.282-1.948,1.088-1.651,1.481-2.244a.95.95,0,0,1,.191-.228v13.938c.144.045,4.482.059,4.77.017v-5.412l.034,0c.069.169.13.342.209.506.17.353.336.708.528,1.05.157.281.346.544.527.811a3.849,3.849,0,0,0,.246.305,4.151,4.151,0,0,0,.282.324c.27.261.534.53.825.766s.626.453.946.669a6.446,6.446,0,0,0,1.122.594c.291.122.588.235.889.329s.6.16.9.23c.235.055.472.1.709.143.061.011.126,0,.188.007s.144.027.216.042h-71.4V123.99h120v23.358ZM66.816,125.2H48.762a1.659,1.659,0,0,0-.382.051,1.279,1.279,0,0,0-.693.443,1.027,1.027,0,0,0-.272.7q.011,9.77.006,19.54c0,.081,0,.163,0,.244,0,.031-.007.068.008.091a2.49,2.49,0,0,0,.28.405,1.465,1.465,0,0,0,1.075.473h36a2.041,2.041,0,0,0,.46-.054,1.469,1.469,0,0,0,1.053-1.347q-.011-9.573,0-19.146a.9.9,0,0,0,0-.131,1.475,1.475,0,0,0-.058-.308,1.6,1.6,0,0,0-.387-.578,1.271,1.271,0,0,0-.92-.379Q75.872,125.2,66.816,125.2Zm93.947-.746c-.042.406-.023,22.4.017,22.537.327.038,4.539.021,4.669-.018.039-.447.02-22.376-.022-22.519Z" transform="translate(0 0)"/><path class="a" d="M3673.141,670.5a5.084,5.084,0,0,1,0,.534,6.105,6.105,0,0,1-.117.7,4.256,4.256,0,0,1-.326.923,3.739,3.739,0,0,1-.478.775,5.475,5.475,0,0,1-.425.473,3.844,3.844,0,0,1-1.735.946,4.559,4.559,0,0,1-1.444.141,4.31,4.31,0,0,1-1.145-.233,4.207,4.207,0,0,1-1.15-.612,4.292,4.292,0,0,1-1.148-1.343,4.967,4.967,0,0,1-.486-1.266c-.033-.138-.029-.285-.064-.422a3.809,3.809,0,0,1-.043-1.026,6.154,6.154,0,0,1,.091-.678,3.424,3.424,0,0,1,.195-.752,4.337,4.337,0,0,1,.616-1.147,3.919,3.919,0,0,1,1.487-1.218,3.777,3.777,0,0,1,1.028-.312,4.574,4.574,0,0,1,1.04-.081,4.5,4.5,0,0,1,1.784.477,5.169,5.169,0,0,1,.742.5,4.033,4.033,0,0,1,.826.934A4.426,4.426,0,0,1,3673,669.2,4.2,4.2,0,0,1,3673.141,670.5Z" transform="translate(-3549.929 -531.706)"/><path class="a" d="M4605.011,667.02c-.021.3-.018.6-.067.895a4.9,4.9,0,0,1-.751,1.961,4.555,4.555,0,0,1-.806.882,3.47,3.47,0,0,1-1.312.688,3.578,3.578,0,0,1-1.346.145,4.1,4.1,0,0,1-1.256-.317,3.989,3.989,0,0,1-1.48-1.149,3.909,3.909,0,0,1-.583-.973,6.3,6.3,0,0,1-.33-1.06,3.854,3.854,0,0,1-.062-.5,4.787,4.787,0,0,1-.033-.521,8.018,8.018,0,0,1,.074-.947,4.69,4.69,0,0,1,.519-1.6,3.02,3.02,0,0,1,.478-.688c.117-.12.214-.262.337-.374a3.914,3.914,0,0,1,1.708-.915,3.462,3.462,0,0,1,1.187-.1,3.811,3.811,0,0,1,1.977.746,4.168,4.168,0,0,1,1.315,1.671,4.882,4.882,0,0,1,.328,1.116A6.827,6.827,0,0,1,4605.011,667.02Z" transform="translate(-4464.813 -528.313)"/><path class="a" d="M5490.871,960.82c.094,0,.188,0,.282,0a5.523,5.523,0,0,1,.925.09,7.292,7.292,0,0,1,1.521.407c.183.068.2.087.2.285,0,.257,0,.514,0,.771a2.269,2.269,0,0,1-.387,1.264,3.057,3.057,0,0,1-1.653,1.223,4.729,4.729,0,0,1-1.948.243,2.74,2.74,0,0,1-1.382-.452,1.672,1.672,0,0,1-.747-1.073,2.365,2.365,0,0,1,.142-1.44,1.857,1.857,0,0,1,.671-.763,3.451,3.451,0,0,1,1.188-.461A4.8,4.8,0,0,1,5490.871,960.82Z" transform="translate(-5338.709 -821.086)"/><path class="b" d="M110.272,188.5q9.056,0,18.111,0a1.271,1.271,0,0,1,.92.379,1.6,1.6,0,0,1,.387.578,1.476,1.476,0,0,1,.058.308.9.9,0,0,1,0,.131q0,9.573,0,19.146a1.469,1.469,0,0,1-1.053,1.347,2.04,2.04,0,0,1-.46.054h-36a1.465,1.465,0,0,1-1.075-.473,2.489,2.489,0,0,1-.28-.405c-.015-.023-.007-.06-.008-.091,0-.081,0-.163,0-.244q0-9.77-.006-19.54a1.026,1.026,0,0,1,.272-.7,1.279,1.279,0,0,1,.693-.443,1.659,1.659,0,0,1,.382-.051Zm16.378,11.8c0-.394,0-.763,0-1.132a.16.16,0,0,0,0-.019c-.028-.228-.054-.456-.084-.684-.026-.195-.053-.389-.085-.583s-.074-.371-.118-.555c-.059-.249-.12-.5-.2-.74a7.118,7.118,0,0,0-.384-1.028c-.181-.371-.366-.74-.569-1.1a5.492,5.492,0,0,0-.459-.67c-.148-.189-.33-.352-.485-.537a5.425,5.425,0,0,0-1.07-.952,7.051,7.051,0,0,0-1.641-.861,6.8,6.8,0,0,0-1.226-.34.832.832,0,0,1-.273-.042c-.162-.1-.341-.051-.509-.091a3.27,3.27,0,0,0-.744-.047c-.23,0-.46.03-.691.033a5.715,5.715,0,0,0-.975.105c-.26.047-.52.094-.776.157a4.626,4.626,0,0,0-.53.156c-.294.112-.587.229-.871.362a8.94,8.94,0,0,0-.805.426,5.566,5.566,0,0,0-.922.657c-.182.167-.382.316-.561.487a5.424,5.424,0,0,0-.385.43c-.164.193-.335.382-.48.589-.168.24-.3.5-.465.746a5.208,5.208,0,0,0-.477.978c-.076.187-.133.381-.2.572-.069.208-.15.413-.2.625-.088.36-.117.731-.183,1.1-.046.254-.013.519-.051.78a1.766,1.766,0,0,0,.032.593c.048.247.019.5.062.759s.075.5.123.743c.051.262.148.516.225.773a5.811,5.811,0,0,0,.627,1.448c.128.206.254.414.381.621a6.079,6.079,0,0,0,.6.788,7.671,7.671,0,0,0,.9.846,6.494,6.494,0,0,0,.807.562,9.542,9.542,0,0,0,1.031.552,7.19,7.19,0,0,0,1.165.418c.3.075.594.163.9.216a7.074,7.074,0,0,0,1.05.125,21.748,21.748,0,0,0,2.2-.032.154.154,0,0,0,.037,0c.258-.09.536-.056.8-.141s.519-.106.773-.18a8.707,8.707,0,0,0,.94-.324,9.488,9.488,0,0,0,.9-.451,7.316,7.316,0,0,0,.627-.4,4.525,4.525,0,0,0,.5-.388c.243-.226.471-.467.7-.7a1.222,1.222,0,0,0,.089-.119c-.187-.177-.37-.345-.546-.52-.343-.339-.681-.682-1.022-1.024-.069-.069-.14-.137-.221-.216a2.819,2.819,0,0,1-.226.275,7.62,7.62,0,0,1-.575.506c-.221.17-.458.319-.693.472a4.56,4.56,0,0,1-1.34.561c-.149.039-.3.072-.449.106a3.468,3.468,0,0,1-.412.09c-.229.024-.46.028-.69.042a.668.668,0,0,0-.091.017.974.974,0,0,1-.215.043,7.1,7.1,0,0,1-.873-.047c-.346-.054-.7-.073-1.042-.154a5.287,5.287,0,0,1-1.232-.436,4.09,4.09,0,0,1-1.105-.779,7.348,7.348,0,0,1-.56-.6,5.41,5.41,0,0,1-.388-.565,5.838,5.838,0,0,1-.671-1.768.914.914,0,0,1-.029-.522Z" transform="translate(-43.456 -63.294)"/><path d="M6115.793,148.86h4.665c.041.143.061,22.072.021,22.519-.13.039-4.342.056-4.669.018C6115.771,171.264,6115.751,149.265,6115.793,148.86Z" transform="translate(-5955.031 -24.402)"/><path class="a" d="M1136.012,326.675h-13.341a.912.912,0,0,0,.029.522,5.843,5.843,0,0,0,.671,1.768,5.371,5.371,0,0,0,.388.565,7.415,7.415,0,0,0,.56.6,4.083,4.083,0,0,0,1.105.779,5.286,5.286,0,0,0,1.232.436c.347.081.7.1,1.042.154a7.049,7.049,0,0,0,.872.047.954.954,0,0,0,.215-.042.654.654,0,0,1,.091-.017c.23-.014.461-.018.69-.042a3.462,3.462,0,0,0,.412-.09c.15-.035.3-.067.449-.106a4.557,4.557,0,0,0,1.34-.561c.234-.152.471-.3.693-.472a7.647,7.647,0,0,0,.575-.506,2.839,2.839,0,0,0,.226-.275c.082.08.152.147.221.216.341.341.68.684,1.022,1.024.177.175.36.343.546.52a1.219,1.219,0,0,1-.089.119c-.233.236-.461.478-.7.7a4.542,4.542,0,0,1-.5.388,7.3,7.3,0,0,1-.627.4,9.506,9.506,0,0,1-.9.451,8.71,8.71,0,0,1-.941.324c-.253.074-.522.1-.772.18s-.541.052-.8.141a.152.152,0,0,1-.037,0,21.739,21.739,0,0,1-2.2.032,7.078,7.078,0,0,1-1.05-.125c-.3-.053-.6-.141-.9-.216a7.2,7.2,0,0,1-1.165-.418,9.5,9.5,0,0,1-1.031-.552,6.494,6.494,0,0,1-.807-.562,7.671,7.671,0,0,1-.9-.846,6.067,6.067,0,0,1-.6-.788c-.127-.207-.253-.415-.381-.621a5.815,5.815,0,0,1-.627-1.448c-.076-.257-.173-.511-.224-.773-.048-.245-.082-.5-.123-.743s-.014-.513-.062-.759a1.766,1.766,0,0,1-.032-.593c.039-.261.005-.526.051-.78.066-.365.1-.736.183-1.1.052-.212.133-.417.2-.625.064-.191.12-.386.2-.572a5.211,5.211,0,0,1,.477-.978c.164-.243.3-.507.465-.746.145-.207.316-.4.48-.589a5.368,5.368,0,0,1,.385-.43c.179-.171.379-.319.561-.487a5.574,5.574,0,0,1,.922-.657,9.022,9.022,0,0,1,.805-.426c.285-.133.577-.25.871-.362a4.591,4.591,0,0,1,.53-.156c.256-.063.516-.11.776-.157a5.708,5.708,0,0,1,.975-.105c.23,0,.46-.033.691-.033a3.275,3.275,0,0,1,.744.047c.168.04.348,0,.509.091a.831.831,0,0,0,.274.042,6.8,6.8,0,0,1,1.226.34,7.054,7.054,0,0,1,1.641.861,5.414,5.414,0,0,1,1.07.952c.154.185.336.348.485.537a5.508,5.508,0,0,1,.459.67c.2.359.389.728.569,1.1a7.131,7.131,0,0,1,.384,1.028c.075.244.136.491.2.74.044.184.088.368.118.555s.059.388.085.583c.03.228.056.456.083.684a.164.164,0,0,1,0,.019C1136.012,325.912,1136.012,326.281,1136.012,326.675Zm-13.254-2.348h9.978a1.061,1.061,0,0,0,.131,0c.123-.015.167-.091.123-.209-.009-.023-.029-.044-.031-.067a3.727,3.727,0,0,0-.2-.883,5.056,5.056,0,0,0-.507-1.142,4.477,4.477,0,0,0-1.14-1.291,4.309,4.309,0,0,0-.85-.527,5.6,5.6,0,0,0-.835-.294,4.02,4.02,0,0,0-.888-.155,6.842,6.842,0,0,0-1.944.135,5.669,5.669,0,0,0-1.242.469,4.945,4.945,0,0,0-.8.542,4.588,4.588,0,0,0-.892.986,5.346,5.346,0,0,0-.526.926,5.157,5.157,0,0,0-.306.913,1.6,1.6,0,0,1-.069.285A.466.466,0,0,0,1122.758,324.327Z" transform="translate(-1052.818 -189.668)"/><path class="b" d="M1287.255,452.259a.468.468,0,0,1,.007-.313,1.617,1.617,0,0,0,.069-.285,5.127,5.127,0,0,1,.306-.913,5.345,5.345,0,0,1,.526-.926,4.589,4.589,0,0,1,.892-.986,4.951,4.951,0,0,1,.8-.542,5.667,5.667,0,0,1,1.242-.469,6.858,6.858,0,0,1,1.944-.135,4.022,4.022,0,0,1,.888.155,5.6,5.6,0,0,1,.835.294,4.294,4.294,0,0,1,.85.527,4.476,4.476,0,0,1,1.14,1.291,5.052,5.052,0,0,1,.507,1.142,3.733,3.733,0,0,1,.2.883c0,.023.022.044.031.067.044.118,0,.194-.123.209a1.056,1.056,0,0,1-.132,0h-9.978Z" transform="translate(-1217.315 -317.6)"/></g></svg>