<svg xmlns="http://www.w3.org/2000/svg" width="285" height="36" viewBox="0 0 285 36"><defs><style>.a{fill:red;}.b{fill:#818285;}</style></defs><g transform="translate(99.428)"><path d="M-472.442,302.99c-.113-.023-.225-.052-.339-.066a.959.959,0,0,0-.135,0,.794.794,0,0,1-.16-.007c-.372-.069-.745-.138-1.114-.224-.473-.11-.947-.217-1.409-.362s-.939-.327-1.4-.518a10.151,10.151,0,0,1-1.763-.934c-.5-.339-1.015-.67-1.486-1.051s-.872-.794-1.3-1.2a6.576,6.576,0,0,1-.444-.509,6.139,6.139,0,0,1-.386-.48c-.285-.42-.581-.834-.828-1.275-.3-.536-.562-1.1-.83-1.65-.124-.258-.219-.53-.329-.8l-.054.005v8.507c-.452.066-7.271.044-7.5-.027V280.488a1.5,1.5,0,0,0-.3.358l-2.328,3.527q-.856,1.3-1.71,2.6-1.009,1.53-2.015,3.062-.629.955-1.26,1.909l-1.13,1.712c-.215.326-.424.656-.645.978-.158.232-.283.225-.435-.007q-.829-1.264-1.661-2.526-1.436-2.175-2.874-4.349-.962-1.457-1.92-2.915c-.464-.7-.934-1.4-1.4-2.1-.445-.676-.886-1.355-1.329-2.032a.665.665,0,0,0-.1-.088v21.445c0,.4,0,.4-.392.4h-7.011V268.4h7.754c.059,0,.118,0,.177,0a.243.243,0,0,1,.242.132c.332.543.669,1.081,1,1.622q.832,1.346,1.663,2.694,1.145,1.845,2.3,3.687c.552.889,1.1,1.78,1.654,2.669q.868,1.4,1.742,2.789c.148.237.3.471.472.743.21-.342.395-.65.585-.954.55-.879,1.106-1.754,1.653-2.634.635-1.022,1.262-2.05,1.9-3.072s1.27-2.042,1.906-3.063q.527-.847,1.055-1.694c.554-.888,1.117-1.769,1.657-2.666a.443.443,0,0,1,.437-.256q3.754.01,7.509,0h.3v14.649c0,.355,0,.71,0,1.064a8.436,8.436,0,0,0,.031,1.007c.132-.277.237-.556.348-.831a10.994,10.994,0,0,1,1.178-2.2,12.633,12.633,0,0,1,1.056-1.4,15.084,15.084,0,0,1,2.019-1.894,13.783,13.783,0,0,1,1.7-1.107,17.37,17.37,0,0,1,1.867-.854,14.838,14.838,0,0,1,1.755-.547c.479-.12.976-.165,1.463-.25a9.268,9.268,0,0,1,1.668-.143q.421,0,.841,0h.46a1.74,1.74,0,0,1,.237.006c.531.072,1.065.132,1.592.228s1.066.208,1.587.355a13.72,13.72,0,0,1,2.919,1.2,15.076,15.076,0,0,1,2.748,1.991,12.327,12.327,0,0,1,1.223,1.354,11.965,11.965,0,0,1,1.361,2.05,11.339,11.339,0,0,1,1.024,2.581c.01.039.071.065.108.1.1-.389.189-.756.287-1.12a11.517,11.517,0,0,1,.678-1.831,10.857,10.857,0,0,1,1.312-2.253c.287-.359.561-.729.869-1.069a10.763,10.763,0,0,1,1.73-1.507,11.08,11.08,0,0,1,2.645-1.392,9.291,9.291,0,0,1,2.2-.552c.436-.046.872-.127,1.309-.134a10.1,10.1,0,0,1,1.8.054c.325.054.652.089.978.155a10.158,10.158,0,0,1,1.784.542,9.518,9.518,0,0,1,2.81,1.789c.408.364.76.792,1.14,1.189.008.008.036,0,.088,0V267.032c.388-.065,7.225-.049,7.458.02v23.833c.066-.1.094-.134.117-.173a6.751,6.751,0,0,1,.975-1.318,7.643,7.643,0,0,1,1.069-.921,8.149,8.149,0,0,1,2.018-1.071c.448-.161.9-.308,1.362-.433.392-.107.794-.185,1.2-.253.3-.05.6-.048.9-.1.631-.11,1.27-.078,1.9-.127.426-.033.859.05,1.289.058a8.788,8.788,0,0,1,1.573.156c.456.092.92.147,1.375.241.379.078.753.184,1.128.286.345.094.687.2,1.046.3a5.477,5.477,0,0,0-.268-2.182,3.777,3.777,0,0,0-.908-1.5,3.632,3.632,0,0,0-1.351-.87c-.367-.126-.746-.217-1.117-.336a5.678,5.678,0,0,0-1.47-.194c-.741-.036-1.487.038-2.231.065a.17.17,0,0,0-.029,0c-.46.075-.922.14-1.38.229-.542.106-1.087.208-1.618.358-.72.2-1.429.45-2.142.678-.194.062-.246.04-.305-.145-.091-.289-.173-.581-.268-.868-.37-1.115-.744-2.228-1.114-3.343-.138-.414-.267-.831-.4-1.262.543-.222,1.058-.458,1.591-.644q1.116-.388,2.254-.711c.475-.135.965-.219,1.45-.317.41-.083.82-.169,1.234-.221.473-.059.949-.1,1.423-.143.563-.056,1.132-.016,1.7-.081a7.718,7.718,0,0,1,1.669.066c.417.043.838.055,1.257.082a.762.762,0,0,1,.086.017c.248.045.5.089.743.135a8.892,8.892,0,0,1,.943.185c.586.177,1.17.367,1.74.588a8.3,8.3,0,0,1,2.945,1.948,8.418,8.418,0,0,1,1.546,2.21,10.36,10.36,0,0,1,.744,2.056c.1.394.164.8.235,1.2.039.22.058.444.084.667a11.845,11.845,0,0,1,.141,1.3q.014,7.834.006,15.669c0,.085-.012.17-.018.256H-414.2c-.023-.309-.008-.6-.011-.893s0-.611,0-.917v-.889c-.066.024-.1.025-.117.042-.31.3-.6.626-.929.9a9.275,9.275,0,0,1-1.9,1.215,8.9,8.9,0,0,1-2.066.721c-.3.06-.592.115-.89.157a9.431,9.431,0,0,1-1.248.143,9.987,9.987,0,0,1-2.03-.066c-.4-.079-.818-.077-1.213-.175a10.152,10.152,0,0,1-2.44-.9,6.307,6.307,0,0,1-1.27-.848,12.215,12.215,0,0,1-1.041-1.036,12.413,12.413,0,0,1-.733-1.056c-.008-.011-.035-.009-.052-.013-.009.014-.025.029-.025.044q0,1.641.01,3.281c0,.3-.01.315-.317.315q-3.444,0-6.889,0c-.075,0-.151-.014-.253-.024v-1.783c0-.306,0-.611,0-.917,0-.289,0-.577-.006-.865-.223.2-.372.431-.562.62a14.769,14.769,0,0,1-1.793,1.662,9.059,9.059,0,0,1-2.325,1.229,8.1,8.1,0,0,1-1.579.4,8.074,8.074,0,0,1-1.307.144c-.192-.007-.385,0-.577,0a4.955,4.955,0,0,1-1.216-.074c-.264-.06-.547-.038-.812-.1a13.388,13.388,0,0,1-1.965-.557,10.472,10.472,0,0,1-2.091-1.051c-.4-.268-.793-.541-1.17-.836a8.107,8.107,0,0,1-.849-.769c-.284-.3-.544-.618-.8-.942s-.508-.668-.738-1.017a9.816,9.816,0,0,1-1.025-1.978c-.216-.582-.4-1.175-.594-1.767-.081-.254-.137-.516-.214-.813a.72.72,0,0,0-.109.148c-.117.361-.208.729-.345,1.081a13.5,13.5,0,0,1-1.165,2.335,13.592,13.592,0,0,1-1.4,1.854,13.187,13.187,0,0,1-2.468,2.137,12.816,12.816,0,0,1-2.893,1.487,18.242,18.242,0,0,1-2.009.608,7.624,7.624,0,0,1-1.672.257.608.608,0,0,0-.189.064Zm51.863-11.824a5.422,5.422,0,0,0-1.867.725,2.918,2.918,0,0,0-1.055,1.2,3.7,3.7,0,0,0-.223,2.263,2.631,2.631,0,0,0,1.175,1.687,4.3,4.3,0,0,0,2.171.711,7.339,7.339,0,0,0,1.908-.084,7.365,7.365,0,0,0,1.154-.3,4.805,4.805,0,0,0,2.6-1.922,3.569,3.569,0,0,0,.608-1.988c0-.4,0-.808,0-1.211,0-.31-.027-.341-.314-.448a11.444,11.444,0,0,0-2.392-.639,8.58,8.58,0,0,0-1.453-.141c-.148,0-.3,0-.444,0q-.167,0-.334,0A7.06,7.06,0,0,0-420.579,291.166Zm-24.658-8.788a6.153,6.153,0,0,0-2.684,1.438c-.195.175-.346.4-.53.587a4.751,4.751,0,0,0-.751,1.082,7.385,7.385,0,0,0-.815,2.517,12.679,12.679,0,0,0-.117,1.489,7.657,7.657,0,0,0,.051.819,6.018,6.018,0,0,0,.1.783,9.845,9.845,0,0,0,.518,1.665,6.138,6.138,0,0,0,.917,1.529,6.265,6.265,0,0,0,2.326,1.806,6.442,6.442,0,0,0,1.974.5,5.642,5.642,0,0,0,2.115-.229,5.441,5.441,0,0,0,2.062-1.081A7.13,7.13,0,0,0-438.8,293.9a7.72,7.72,0,0,0,1.18-3.083c.08-.461.073-.938.106-1.407a10.778,10.778,0,0,0-.162-1.636,7.71,7.71,0,0,0-.516-1.754,6.543,6.543,0,0,0-2.067-2.626,5.99,5.99,0,0,0-3.109-1.172,4.378,4.378,0,0,0-.465-.024A5.889,5.889,0,0,0-445.237,282.378Zm-27.074.057a5.948,5.948,0,0,0-1.616.49,6.166,6.166,0,0,0-2.338,1.914,6.855,6.855,0,0,0-.968,1.8,5.359,5.359,0,0,0-.306,1.182,9.688,9.688,0,0,0-.144,1.065,6,6,0,0,0,.067,1.613c.057.215.05.446.1.663a7.8,7.8,0,0,0,.763,1.99,6.745,6.745,0,0,0,1.805,2.111,6.626,6.626,0,0,0,1.808.963,6.787,6.787,0,0,0,1.8.366,7.167,7.167,0,0,0,2.269-.221,6.032,6.032,0,0,0,2.727-1.487,8.487,8.487,0,0,0,.667-.743,5.836,5.836,0,0,0,.752-1.217,6.617,6.617,0,0,0,.513-1.451,9.548,9.548,0,0,0,.184-1.093,7.868,7.868,0,0,0,.006-.84,6.567,6.567,0,0,0-.225-2.045,6.959,6.959,0,0,0-.965-2.184,6.339,6.339,0,0,0-1.3-1.468,8.061,8.061,0,0,0-1.166-.787,7.071,7.071,0,0,0-2.8-.75c-.1-.007-.2-.011-.294-.011A8.776,8.776,0,0,0-472.312,282.435Zm67.146,20c-.063-.208-.094-34.787-.028-35.424h7.333c.065.225.1,34.693.034,35.4-.123.037-2.6.061-4.647.061C-403.808,302.468-404.962,302.458-405.165,302.434Z" transform="translate(583.365 -266.99)"/><path class="a" d="M-517.95,300.739a3.948,3.948,0,0,1-.44-.637c-.023-.036-.011-.1-.013-.144,0-.128-.007-.256-.007-.384q0-15.357-.009-30.714a1.611,1.611,0,0,1,.428-1.093,2.011,2.011,0,0,1,1.089-.7,2.626,2.626,0,0,1,.6-.08h28.38q14.235,0,28.468,0a2,2,0,0,1,1.446.6,2.52,2.52,0,0,1,.608.909,2.36,2.36,0,0,1,.091.484,1.479,1.479,0,0,1,0,.207q0,15.047.007,30.094a2.308,2.308,0,0,1-1.655,2.117,3.217,3.217,0,0,1-.723.085h-56.583A2.3,2.3,0,0,1-517.95,300.739Zm42.355-29.889a8.965,8.965,0,0,0-1.534.165c-.408.075-.817.148-1.219.247a7.271,7.271,0,0,0-.834.245c-.462.175-.922.36-1.369.569a13.919,13.919,0,0,0-1.266.67,8.756,8.756,0,0,0-1.45,1.033c-.287.263-.6.5-.882.765a8.584,8.584,0,0,0-.6.676c-.258.3-.527.6-.754.926-.264.377-.473.792-.731,1.173a8.151,8.151,0,0,0-.75,1.537c-.119.293-.209.6-.309.9-.109.327-.236.649-.318.982-.138.566-.184,1.149-.287,1.722-.072.4-.02.815-.08,1.226a2.77,2.77,0,0,0,.05.932c.075.388.029.792.1,1.193s.119.781.194,1.167c.08.413.233.81.353,1.215a9.151,9.151,0,0,0,.986,2.276c.2.324.4.651.6.976a9.567,9.567,0,0,0,.941,1.239,12.031,12.031,0,0,0,1.413,1.33,10.128,10.128,0,0,0,1.269.883,14.96,14.96,0,0,0,1.621.869,11.311,11.311,0,0,0,1.831.657c.469.118.934.257,1.409.34a11.142,11.142,0,0,0,1.651.2,34.064,34.064,0,0,0,3.45-.05h.019a.116.116,0,0,0,.04,0c.406-.141.843-.088,1.256-.222.394-.128.816-.167,1.214-.283a13.68,13.68,0,0,0,1.478-.51,14.812,14.812,0,0,0,1.407-.709,11.444,11.444,0,0,0,.985-.629,7.151,7.151,0,0,0,.784-.61c.382-.354.741-.735,1.107-1.106a1.911,1.911,0,0,0,.14-.187c-.293-.278-.581-.543-.859-.817-.539-.533-1.071-1.073-1.607-1.609-.108-.108-.219-.214-.347-.34a4.5,4.5,0,0,1-.355.432c-.293.275-.586.552-.9.8-.348.267-.721.5-1.089.741a7.16,7.16,0,0,1-2.107.882c-.234.062-.47.113-.705.167a5.412,5.412,0,0,1-.648.142c-.36.038-.723.045-1.084.066a1.038,1.038,0,0,0-.144.026,1.5,1.5,0,0,1-.338.067,11.084,11.084,0,0,1-1.372-.073c-.544-.085-1.093-.115-1.638-.242a8.3,8.3,0,0,1-1.937-.685,6.431,6.431,0,0,1-1.737-1.224,11.5,11.5,0,0,1-.88-.946,8.481,8.481,0,0,1-.609-.888,9.175,9.175,0,0,1-1.054-2.78,1.44,1.44,0,0,1-.046-.82h20.971v-1.779a.182.182,0,0,0,0-.029c-.043-.358-.084-.717-.131-1.075-.04-.306-.083-.612-.134-.917s-.117-.583-.186-.873c-.093-.39-.189-.779-.307-1.163a11.2,11.2,0,0,0-.6-1.616c-.284-.582-.575-1.163-.895-1.727a8.655,8.655,0,0,0-.721-1.052c-.234-.3-.52-.553-.762-.845a8.543,8.543,0,0,0-1.682-1.5,11.078,11.078,0,0,0-2.58-1.353,10.707,10.707,0,0,0-1.927-.535,1.311,1.311,0,0,1-.43-.066c-.254-.151-.536-.08-.8-.143a4.333,4.333,0,0,0-1.006-.075h-.17C-474.875,270.8-475.235,270.847-475.595,270.85Zm8.27,11H-483.01a.738.738,0,0,1,.011-.492,2.5,2.5,0,0,0,.109-.448,8.077,8.077,0,0,1,.481-1.436,8.451,8.451,0,0,1,.827-1.456,7.215,7.215,0,0,1,1.4-1.55,7.753,7.753,0,0,1,1.257-.852,8.921,8.921,0,0,1,1.952-.737,10.78,10.78,0,0,1,3.055-.212,6.352,6.352,0,0,1,1.4.243,8.872,8.872,0,0,1,1.313.462,6.75,6.75,0,0,1,1.336.828,7.042,7.042,0,0,1,1.792,2.029,7.952,7.952,0,0,1,.8,1.794,5.885,5.885,0,0,1,.307,1.389c0,.036.035.069.049.105.069.185,0,.3-.193.329a.707.707,0,0,1-.088,0Z" transform="translate(518.418 -265.799)"/></g><path class="b" d="M5.573-16.08l3.394-9.351h.056l3.338,9.351ZM7.564-27.846-.234-7.8H2.487l2.244-6.037H13.2L15.391-7.8h2.945L10.51-27.846ZM22.1-14.929a9.559,9.559,0,0,1,.224-2.078,5.5,5.5,0,0,1,.729-1.8A3.8,3.8,0,0,1,24.4-20.068a4.091,4.091,0,0,1,2.048-.477,4.422,4.422,0,0,1,2.1.463,4.085,4.085,0,0,1,1.417,1.221,5.11,5.11,0,0,1,.8,1.755,8.374,8.374,0,0,1,.252,2.064,8.426,8.426,0,0,1-.238,1.994,5.228,5.228,0,0,1-.771,1.755,4.106,4.106,0,0,1-1.375,1.25,4.091,4.091,0,0,1-2.048.477,4.255,4.255,0,0,1-2.006-.449,3.987,3.987,0,0,1-1.4-1.207,5.345,5.345,0,0,1-.813-1.727A7.43,7.43,0,0,1,22.1-14.929ZM33.316-7.8V-27.846H30.931v7.469h-.056a3.843,3.843,0,0,0-.968-1.081,5.5,5.5,0,0,0-1.22-.7,6.12,6.12,0,0,0-1.29-.379,7.056,7.056,0,0,0-1.206-.112,6.6,6.6,0,0,0-2.9.6,5.961,5.961,0,0,0-2.076,1.629,6.878,6.878,0,0,0-1.234,2.4,10.251,10.251,0,0,0-.407,2.92,9.933,9.933,0,0,0,.421,2.92A7.221,7.221,0,0,0,21.24-9.762a6.034,6.034,0,0,0,2.076,1.657,6.536,6.536,0,0,0,2.931.618,7.062,7.062,0,0,0,2.777-.534,3.511,3.511,0,0,0,1.851-1.741h.056V-7.8Zm10.66,0,5.3-14.517h-2.5l-3.955,12.1h-.056L38.7-22.314H36.037L41.423-7.8Zm18.009-8.649H53.653a4.976,4.976,0,0,1,.365-1.587,4.232,4.232,0,0,1,.842-1.306,3.854,3.854,0,0,1,1.276-.885,4.148,4.148,0,0,1,1.669-.323,4.075,4.075,0,0,1,1.641.323,4.128,4.128,0,0,1,1.29.87,4.091,4.091,0,0,1,.87,1.306A4.887,4.887,0,0,1,61.984-16.446Zm2.3,4.044H61.928a3.4,3.4,0,0,1-1.276,2.134,4.124,4.124,0,0,1-2.483.7,4.935,4.935,0,0,1-2.048-.393,4.014,4.014,0,0,1-1.431-1.053,4.1,4.1,0,0,1-.813-1.516,5.768,5.768,0,0,1-.224-1.811H64.509a11.569,11.569,0,0,0-.238-2.78,8.052,8.052,0,0,0-1.066-2.7,6.355,6.355,0,0,0-2.048-2.036,5.945,5.945,0,0,0-3.212-.8,6.589,6.589,0,0,0-2.735.562,6.428,6.428,0,0,0-2.16,1.572,7.249,7.249,0,0,0-1.417,2.387,8.744,8.744,0,0,0-.5,3.033,11.648,11.648,0,0,0,.491,3.061,6.682,6.682,0,0,0,1.3,2.415A5.945,5.945,0,0,0,55.07-8.05a7.443,7.443,0,0,0,3.016.562,6.578,6.578,0,0,0,4.1-1.236A5.8,5.8,0,0,0,64.285-12.4Zm3.142-9.912V-7.8h2.384V-16a5.887,5.887,0,0,1,.266-1.811,4.115,4.115,0,0,1,.8-1.446,3.55,3.55,0,0,1,1.332-.955,4.855,4.855,0,0,1,1.893-.337,2.917,2.917,0,0,1,2.16.786,2.885,2.885,0,0,1,.785,2.134V-7.8h2.384v-9.547a8.992,8.992,0,0,0-.238-2.148,4.07,4.07,0,0,0-.828-1.671,3.92,3.92,0,0,0-1.543-1.1,6.288,6.288,0,0,0-2.384-.393,5.019,5.019,0,0,0-4.713,2.64h-.056v-2.3Zm19.356,0v-4.352H84.4v4.352H81.929v2.106H84.4v9.238a5.521,5.521,0,0,0,.2,1.629,1.98,1.98,0,0,0,.6.955,2.327,2.327,0,0,0,1.066.463,8.553,8.553,0,0,0,1.585.126h1.823V-9.9H88.577a7.944,7.944,0,0,1-.912-.042,1.177,1.177,0,0,1-.547-.183.694.694,0,0,1-.266-.393,2.607,2.607,0,0,1-.07-.674v-9.014h2.889v-2.106Z" transform="translate(0.234 35.157)"/></svg>