<svg xmlns="http://www.w3.org/2000/svg" width="40" height="40" viewBox="0 0 40 40"><defs><style>.a{fill:none;}.b{fill:red;}</style></defs><path class="a" d="M0,0H40V40H0Z"/><path class="b" d="M18.667,2A16.667,16.667,0,1,0,35.333,18.667,16.673,16.673,0,0,0,18.667,2Zm1.667,28.333H17V27h3.333Zm3.45-12.917-1.5,1.533a5.674,5.674,0,0,0-1.95,4.717H17v-.833a6.708,6.708,0,0,1,1.95-4.717l2.067-2.1A3.259,3.259,0,0,0,22,13.667a3.333,3.333,0,1,0-6.667,0H12a6.667,6.667,0,1,1,13.333,0A5.3,5.3,0,0,1,23.783,17.417Z" transform="translate(1.333 1.333)"/></svg>